<svg xmlns="http://www.w3.org/2000/svg" viewBox="0 0 251.28 74.61"><defs><style>.cls-1{fill:#844a83;}.cls-2{fill:#fff;}</style></defs><g id="Capa_2" data-name="Capa 2"><g id="Capa_1-2" data-name="Capa 1"><path class="cls-1" d="M133.38,63.45a.72.72,0,0,1-.2-.53V53.77a.76.76,0,0,1,.21-.56A.73.73,0,0,1,134,53a.72.72,0,0,1,.78.78v8.58h4.56a.77.77,0,0,1,.53.17.7.7,0,0,1,0,1,.76.76,0,0,1-.53.16h-5.36A.77.77,0,0,1,133.38,63.45Z"/><path class="cls-1" d="M144.58,63.1a4.35,4.35,0,0,1-1.7-1.87,6.42,6.42,0,0,1-.61-2.87,6.51,6.51,0,0,1,.6-2.89,4.23,4.23,0,0,1,1.7-1.87,5.53,5.53,0,0,1,5.24,0,4.23,4.23,0,0,1,1.7,1.87,7.3,7.3,0,0,1,0,5.75,4.31,4.31,0,0,1-1.7,1.88,5.06,5.06,0,0,1-2.63.66A5,5,0,0,1,144.58,63.1Zm5.08-1.68a4.72,4.72,0,0,0,.88-3.07,4.76,4.76,0,0,0-.87-3.07,3,3,0,0,0-2.49-1.08,3,3,0,0,0-2.45,1.08,4.7,4.7,0,0,0-.88,3.07,4.72,4.72,0,0,0,.88,3.07,3,3,0,0,0,2.45,1.08A3,3,0,0,0,149.66,61.42Z"/><path class="cls-1" d="M164.42,58.2a.61.61,0,0,1,.17.45v3.51a1.46,1.46,0,0,1-.14.73,1,1,0,0,1-.57.36,6.76,6.76,0,0,1-1.42.38,10.16,10.16,0,0,1-1.64.13,5.64,5.64,0,0,1-2.77-.64,4.29,4.29,0,0,1-1.79-1.86,7.2,7.2,0,0,1,0-5.8A4.34,4.34,0,0,1,158,53.6a5.35,5.35,0,0,1,2.7-.66,6,6,0,0,1,1.94.31,4.24,4.24,0,0,1,1.52.89.74.74,0,0,1,.3.6.71.71,0,0,1-.15.46.44.44,0,0,1-.36.19.6.6,0,0,1-.24,0l-.27-.15a5.26,5.26,0,0,0-1.33-.75,3.92,3.92,0,0,0-1.38-.22,3.22,3.22,0,0,0-2.61,1.06,4.61,4.61,0,0,0-.9,3.07,4.58,4.58,0,0,0,.92,3.11,3.43,3.43,0,0,0,2.71,1.06,7.44,7.44,0,0,0,2.31-.36v-3h-2a.65.65,0,0,1-.47-.16.54.54,0,0,1-.17-.42.56.56,0,0,1,.17-.43.65.65,0,0,1,.47-.16H164A.65.65,0,0,1,164.42,58.2Z"/><path class="cls-1" d="M168.94,63.51a.77.77,0,0,1-.21-.57V53.77a.76.76,0,0,1,.21-.56.73.73,0,0,1,.56-.22.72.72,0,0,1,.78.78v9.17a.77.77,0,0,1-.21.57.74.74,0,0,1-.57.21A.76.76,0,0,1,168.94,63.51Z"/><path class="cls-1" d="M175.87,63.45a4.29,4.29,0,0,1-1.65-.87.77.77,0,0,1-.28-.62.73.73,0,0,1,.15-.46.45.45,0,0,1,.36-.18,1,1,0,0,1,.51.19,5,5,0,0,0,3,1,3.22,3.22,0,0,0,1.85-.45,1.48,1.48,0,0,0,.65-1.29,1.06,1.06,0,0,0-.6-1,7.88,7.88,0,0,0-1.92-.63,11.5,11.5,0,0,1-2.08-.61,3.08,3.08,0,0,1-1.26-.94,2.38,2.38,0,0,1-.46-1.51,2.81,2.81,0,0,1,.5-1.63,3.4,3.4,0,0,1,1.4-1.11,5.15,5.15,0,0,1,2.06-.4,6.21,6.21,0,0,1,2,.3,4.14,4.14,0,0,1,1.53.89.77.77,0,0,1,.3.61.73.73,0,0,1-.16.45.48.48,0,0,1-.37.2,1,1,0,0,1-.49-.2,5.24,5.24,0,0,0-1.3-.75,4,4,0,0,0-1.46-.24,3,3,0,0,0-1.81.48,1.52,1.52,0,0,0-.64,1.31,1.22,1.22,0,0,0,.57,1.09,6.34,6.34,0,0,0,1.83.67,14.76,14.76,0,0,1,2.14.62,3.25,3.25,0,0,1,1.3.88A2.12,2.12,0,0,1,182,60.7a2.71,2.71,0,0,1-.5,1.6,3.29,3.29,0,0,1-1.41,1.08,5.28,5.28,0,0,1-2.1.38A7.28,7.28,0,0,1,175.87,63.45Z"/><path class="cls-1" d="M188.26,63.5a.77.77,0,0,1-.22-.56V54.35h-3c-.48,0-.72-.21-.72-.64a.62.62,0,0,1,.19-.48.78.78,0,0,1,.53-.17h7.57a.78.78,0,0,1,.53.17.62.62,0,0,1,.19.48c0,.43-.24.64-.72.64h-3v8.59a.76.76,0,0,1-.21.56.74.74,0,0,1-.57.22A.77.77,0,0,1,188.26,63.5Z"/><path class="cls-1" d="M196.61,63.51a.77.77,0,0,1-.21-.57V53.77a.76.76,0,0,1,.21-.56.73.73,0,0,1,.56-.22.72.72,0,0,1,.78.78v9.17a.81.81,0,0,1-.2.57.78.78,0,0,1-.58.21A.76.76,0,0,1,196.61,63.51Z"/><path class="cls-1" d="M204.18,63.11a4.32,4.32,0,0,1-1.73-1.88,7.21,7.21,0,0,1,0-5.76,4.3,4.3,0,0,1,1.73-1.87,5.12,5.12,0,0,1,2.64-.66,5.78,5.78,0,0,1,1.87.31,4.66,4.66,0,0,1,1.55.89.72.72,0,0,1,.28.6.71.71,0,0,1-.15.46.44.44,0,0,1-.36.19.77.77,0,0,1-.49-.2,5.18,5.18,0,0,0-1.31-.75,3.82,3.82,0,0,0-1.35-.22,3.1,3.1,0,0,0-2.53,1.06,4.7,4.7,0,0,0-.89,3.07,4.68,4.68,0,0,0,.89,3.07,3.1,3.1,0,0,0,2.53,1.07,3.73,3.73,0,0,0,1.32-.23,6.47,6.47,0,0,0,1.34-.75,1,1,0,0,1,.49-.19.45.45,0,0,1,.36.18.78.78,0,0,1-.13,1.06,4.68,4.68,0,0,1-1.55.9,5.77,5.77,0,0,1-1.87.3A5.12,5.12,0,0,1,204.18,63.11Z"/><path class="cls-1" d="M221.26,63.45a4.32,4.32,0,0,1-1.64-.87.78.78,0,0,1-.29-.62.73.73,0,0,1,.15-.46.45.45,0,0,1,.36-.18,1,1,0,0,1,.51.19,5,5,0,0,0,3.05,1,3.19,3.19,0,0,0,1.84-.45,1.48,1.48,0,0,0,.65-1.29,1.06,1.06,0,0,0-.6-1,7.88,7.88,0,0,0-1.92-.63,11.61,11.61,0,0,1-2.07-.61,3.11,3.11,0,0,1-1.27-.94,2.44,2.44,0,0,1-.46-1.51,2.81,2.81,0,0,1,.5-1.63,3.43,3.43,0,0,1,1.41-1.11,5.1,5.1,0,0,1,2.05-.4,6.21,6.21,0,0,1,2,.3,4.14,4.14,0,0,1,1.53.89.77.77,0,0,1,.3.61.67.67,0,0,1-.16.45.45.45,0,0,1-.36.2,1,1,0,0,1-.5-.2,5.07,5.07,0,0,0-1.3-.75,4,4,0,0,0-1.46-.24,3,3,0,0,0-1.8.48A1.53,1.53,0,0,0,221.1,56a1.22,1.22,0,0,0,.57,1.09,6.34,6.34,0,0,0,1.83.67,14.39,14.39,0,0,1,2.14.62,3.29,3.29,0,0,1,1.31.88,2.17,2.17,0,0,1,.49,1.45,2.65,2.65,0,0,1-.51,1.6,3.18,3.18,0,0,1-1.41,1.08,5.23,5.23,0,0,1-2.09.38A7.39,7.39,0,0,1,221.26,63.45Z"/><path class="cls-1" d="M230.86,63.45a.93.93,0,0,1-.27-.69,1,1,0,0,1,.27-.7.94.94,0,0,1,.69-.28.88.88,0,0,1,.67.28,1,1,0,0,1,.27.7.93.93,0,0,1-.27.69.9.9,0,0,1-.67.27A1,1,0,0,1,230.86,63.45Z"/><path class="cls-1" d="M246.07,63a.59.59,0,0,1-.23.48.79.79,0,0,1-.52.2.66.66,0,0,1-.36-.11.73.73,0,0,1-.27-.33l-1-2.25h-5.49l-1,2.25a.73.73,0,0,1-.27.33.76.76,0,0,1-.38.11.81.81,0,0,1-.53-.2.62.62,0,0,1-.23-.48.79.79,0,0,1,.07-.3l4.24-9.26a.79.79,0,0,1,.33-.37.93.93,0,0,1,1,0,.81.81,0,0,1,.34.37L246,62.74A.79.79,0,0,1,246.07,63Zm-7.3-3.24h4.39l-2.2-5Z"/><path class="cls-1" d="M249.65,63.45a.94.94,0,0,1-.28-.69,1,1,0,0,1,.28-.7.91.91,0,0,1,.68-.28.9.9,0,0,1,.68.28,1,1,0,0,1,.27.7,1,1,0,0,1-1.63.69Z"/><path class="cls-2" d="M102.54,38.79H90.48c-.22.6-.44,1.25-.68,2l-.7,2.07c-.22.67-.44,1.3-.65,1.89s-.38,1.07-.5,1.46a3.72,3.72,0,0,1-1.48.27,2.24,2.24,0,0,1-1.28-.38,1.39,1.39,0,0,1-.57-1.24,2.73,2.73,0,0,1,.14-.83c.09-.29.19-.59.31-.92l1.74-4.87c.7-2,1.47-4.09,2.29-6.32s1.67-4.49,2.52-6.76S93.27,20.83,94,19a5.58,5.58,0,0,1,1.08-.36,6.06,6.06,0,0,1,1.48-.18,5.65,5.65,0,0,1,1.74.27,1.52,1.52,0,0,1,1,.9c.72,1.75,1.5,3.73,2.32,6s1.66,4.52,2.5,6.87,1.64,4.64,2.41,6.91,1.45,4.31,2.05,6.14a2.75,2.75,0,0,1-.86.65,2.4,2.4,0,0,1-1.12.25,2,2,0,0,1-1.31-.38,3,3,0,0,1-.76-1.28Zm-6-17.24c-.33.9-.71,1.92-1.13,3.08l-1.3,3.62c-.45,1.26-.9,2.54-1.35,3.83s-.87,2.52-1.26,3.69H101.6c-.45-1.35-.92-2.71-1.4-4.07s-.94-2.68-1.37-3.94-.84-2.42-1.22-3.49-.68-2-.92-2.72Z"/><path class="cls-2" d="M134,40.77A8.24,8.24,0,0,1,132,43.92a9.46,9.46,0,0,1-3.35,2,14.74,14.74,0,0,1-9.1,0,9.29,9.29,0,0,1-3.33-2,8.56,8.56,0,0,1-2.05-3.15,11.75,11.75,0,0,1-.69-4.14V18.8a4.8,4.8,0,0,1,.69-.2,4.19,4.19,0,0,1,1-.12c1.29,0,1.93.56,1.93,1.67V36.31a8.45,8.45,0,0,0,.54,3.15,6.69,6.69,0,0,0,1.47,2.28,5.81,5.81,0,0,0,2.2,1.37,8.75,8.75,0,0,0,5.54,0A5.85,5.85,0,0,0,129,41.74a6.82,6.82,0,0,0,1.46-2.28,8.45,8.45,0,0,0,.54-3.15V18.8a4.63,4.63,0,0,1,.7-.2,4.05,4.05,0,0,1,1-.12c1.32,0,2,.56,2,1.67V36.63A11.52,11.52,0,0,1,134,40.77Z"/><path class="cls-2" d="M165.62,32.08a18.32,18.32,0,0,1-1,6.42A11.86,11.86,0,0,1,161.72,43a11.72,11.72,0,0,1-4.52,2.68,19.12,19.12,0,0,1-5.95.88q-1.44,0-3.24-.12a14.57,14.57,0,0,1-3.42-.6q-1.89-.59-1.89-2.07V20.65a1.58,1.58,0,0,1,.36-1.11,2.5,2.5,0,0,1,1.13-.61,13.7,13.7,0,0,1,3.15-.58c1.17-.09,2.34-.14,3.51-.14a19.69,19.69,0,0,1,6,.88,12.94,12.94,0,0,1,4.66,2.61,11.83,11.83,0,0,1,3,4.33A15.41,15.41,0,0,1,165.62,32.08Zm-3.74,0a12.41,12.41,0,0,0-.88-4.93,9,9,0,0,0-2.39-3.35,9.52,9.52,0,0,0-3.51-1.92,14.9,14.9,0,0,0-4.3-.6c-1,0-1.79,0-2.5.09a17.65,17.65,0,0,0-2,.27V43.07a13.62,13.62,0,0,0,2.31.36q1.25.09,2.55.09,5.31,0,8-2.89T161.88,32.08Z"/><path class="cls-2" d="M187,38.79H174.93c-.21.6-.43,1.25-.67,2l-.7,2.07c-.22.67-.44,1.3-.65,1.89s-.38,1.07-.5,1.46a3.72,3.72,0,0,1-1.48.27,2.3,2.3,0,0,1-1.29-.38,1.41,1.41,0,0,1-.56-1.24,2.73,2.73,0,0,1,.14-.83c.09-.29.19-.59.31-.92l1.74-4.87c.7-2,1.47-4.09,2.29-6.32s1.67-4.49,2.52-6.76,1.65-4.29,2.37-6.1a5.58,5.58,0,0,1,1.08-.36,6.06,6.06,0,0,1,1.48-.18,5.65,5.65,0,0,1,1.74.27,1.52,1.52,0,0,1,1.05.9c.72,1.75,1.5,3.73,2.32,6s1.66,4.52,2.5,6.87,1.64,4.64,2.41,6.91,1.45,4.31,2.05,6.14a2.75,2.75,0,0,1-.86.65,2.4,2.4,0,0,1-1.12.25,2,2,0,0,1-1.31-.38,3,3,0,0,1-.76-1.28Zm-6-17.24c-.33.9-.71,1.92-1.13,3.08l-1.3,3.62c-.45,1.26-.9,2.54-1.35,3.83s-.88,2.52-1.26,3.69h10.13c-.46-1.35-.92-2.71-1.4-4.07s-.94-2.68-1.37-3.94-.84-2.42-1.22-3.49-.68-2-.92-2.72Z"/><path class="cls-2" d="M200.37,46.31q-2,0-2-1.62V19.25a3.3,3.3,0,0,1,2.43-.81,3.69,3.69,0,0,1,1.85.43,3.83,3.83,0,0,1,1.39,1.55l8.6,14.41,1.13,2c.39.71.76,1.41,1.12,2.12l1,2,.78,1.55.18,0c-.24-2.44-.38-4.88-.42-7.34s-.07-4.87-.07-7.21V18.8c.18-.06.42-.13.72-.2a3.84,3.84,0,0,1,1-.12q2,0,2,1.62V45.59a2.89,2.89,0,0,1-1,.56,4.73,4.73,0,0,1-1.4.2,3.69,3.69,0,0,1-1.85-.43,3.83,3.83,0,0,1-1.39-1.55L205.86,30q-.54-.9-1.14-2c-.41-.72-.8-1.42-1.17-2.11s-.72-1.35-1-2l-.79-1.58-.18.05c.15,1.44.27,3.08.36,4.93s.14,3.59.14,5.24V46a5,5,0,0,1-.7.2A4,4,0,0,1,200.37,46.31Z"/><path class="cls-2" d="M243.37,38.79H231.3c-.21.6-.43,1.25-.67,2s-.48,1.39-.7,2.07-.45,1.3-.66,1.89-.37,1.07-.49,1.46a3.78,3.78,0,0,1-1.49.27,2.27,2.27,0,0,1-1.28-.38,1.41,1.41,0,0,1-.56-1.24,2.71,2.71,0,0,1,.13-.83c.09-.29.2-.59.32-.92l1.73-4.87c.71-2,1.47-4.09,2.3-6.32s1.66-4.49,2.52-6.76,1.64-4.29,2.36-6.1a5.58,5.58,0,0,1,1.08-.36,6.14,6.14,0,0,1,1.49-.18,5.54,5.54,0,0,1,1.73.27,1.51,1.51,0,0,1,1.06.9c.72,1.75,1.49,3.73,2.32,6s1.66,4.52,2.5,6.87,1.64,4.64,2.41,6.91,1.44,4.31,2,6.14a2.71,2.71,0,0,1-.85.65,2.44,2.44,0,0,1-1.13.25,2,2,0,0,1-1.3-.38,3,3,0,0,1-.77-1.28Zm-6-17.24-1.12,3.08c-.42,1.16-.86,2.36-1.31,3.62s-.9,2.54-1.35,3.83-.87,2.52-1.26,3.69h10.13c-.45-1.35-.91-2.71-1.39-4.07s-.94-2.68-1.38-3.94-.84-2.42-1.21-3.49-.69-2-.93-2.72Z"/><path class="cls-1" d="M73.9,36.45c-.21,0-17.85-.89-27.06-3.3l9.51-13.76a.74.74,0,0,0-.08-.95.76.76,0,0,0-1-.08L41.46,27.9C39,18.73,38,.92,38,.71A.76.76,0,0,0,37.2,0a.75.75,0,0,0-.75.71c0,.21-.89,18-3.32,27.14L19.36,18.34a.75.75,0,0,0-1,1l9.52,13.79C18.64,35.65.92,36.64.71,36.66a.76.76,0,0,0-.71.76.74.74,0,0,0,.71.74c.21,0,18,.9,27.16,3.33L18.32,55.32a.76.76,0,0,0,.09,1,.75.75,0,0,0,.95.09l13.82-9.54C35.65,56,36.64,73.7,36.66,73.91a.76.76,0,0,0,.76.7.74.74,0,0,0,.74-.71c0-.21.89-17.88,3.31-27.09l13.82,9.56a.74.74,0,0,0,.42.13.71.71,0,0,0,.53-.22.74.74,0,0,0,.09-1L46.76,41.45C56,39,73.7,38,73.91,38a.75.75,0,0,0,.7-.75h0A.75.75,0,0,0,73.9,36.45ZM52.81,21.9,45.16,33a4.28,4.28,0,0,0-.1-.73,4,4,0,0,0-1-1.86l7.43-7.59ZM37.44,42.29c-5.12-3.85-6.47-7.46-6-9.58a2.42,2.42,0,0,1,2-2,2.3,2.3,0,0,1,.45-.05c2,0,2.82,2.75,2.85,2.87a.75.75,0,0,0,.7.55.74.74,0,0,0,.73-.51s1.18-3.38,3.59-2.92a2.28,2.28,0,0,1,1.87,1.88C44.06,34.59,42.7,38.33,37.44,42.29Zm-.21-31.71c.59,6,1.53,13.31,3,18.21l-2.85,2-2.91-2C35.79,23.83,36.69,16.51,37.23,10.58ZM22.09,22l10.63,7.33a3.89,3.89,0,0,0-1.87,1.24ZM10.58,37.38c5.93-.58,13.24-1.52,18.14-2.92l2,2.9-2,2.84C23.86,38.82,16.52,37.92,10.58,37.38ZM22.77,51.51,31.68,38.6a17.2,17.2,0,0,0,1.7,2.07ZM37.38,64c-.58-5.91-1.52-13.19-2.91-18.09l2.87-2,2.84,2C38.82,50.83,37.92,58.12,37.38,64Zm15.2-11.51.21.31-14-9.69A26.11,26.11,0,0,0,41,41.2ZM45.87,40.16,44,37.41l.25-.47L46,34.44c4.9,1.36,12.18,2.25,18.08,2.79C58.1,37.81,50.78,38.76,45.87,40.16Z"/></g></g></svg>