<svg xmlns="http://www.w3.org/2000/svg" viewBox="0 0 216.09 64.16"><defs><style>.cls-1{fill:#fff;}</style></defs><g id="Capa_2" data-name="Capa 2"><g id="Capa_1-2" data-name="Capa 1"><path class="cls-1" d="M114.7,54.56a.61.61,0,0,1-.17-.45V46.24a.69.69,0,0,1,.18-.49.65.65,0,0,1,.48-.18.67.67,0,0,1,.49.18.66.66,0,0,1,.18.49v7.38h3.92a.7.7,0,0,1,.46.14.51.51,0,0,1,.16.41.52.52,0,0,1-.16.42.7.7,0,0,1-.46.14h-4.61A.68.68,0,0,1,114.7,54.56Z"/><path class="cls-1" d="M124.33,54.26a3.69,3.69,0,0,1-1.46-1.61,5.44,5.44,0,0,1-.52-2.46,5.65,5.65,0,0,1,.51-2.49,3.69,3.69,0,0,1,1.46-1.61,4.82,4.82,0,0,1,4.51,0,3.69,3.69,0,0,1,1.46,1.61,6.26,6.26,0,0,1,0,4.95,3.69,3.69,0,0,1-1.46,1.61,4.34,4.34,0,0,1-2.26.57A4.26,4.26,0,0,1,124.33,54.26Zm4.37-1.44a4.06,4.06,0,0,0,.76-2.65,4,4,0,0,0-.76-2.63,2.88,2.88,0,0,0-4.24,0,4.06,4.06,0,0,0-.76,2.63,4.12,4.12,0,0,0,.76,2.65,2.57,2.57,0,0,0,2.11.93A2.61,2.61,0,0,0,128.7,52.82Z"/><path class="cls-1" d="M141.39,50.05a.49.49,0,0,1,.15.38v3a1.22,1.22,0,0,1-.12.63.87.87,0,0,1-.49.31,5.79,5.79,0,0,1-1.22.33,9.78,9.78,0,0,1-1.41.11,4.88,4.88,0,0,1-2.39-.55,3.7,3.7,0,0,1-1.53-1.6,5.41,5.41,0,0,1-.53-2.51,5.29,5.29,0,0,1,.53-2.47,3.68,3.68,0,0,1,1.51-1.61,4.66,4.66,0,0,1,2.32-.56,5.27,5.27,0,0,1,1.67.26,3.78,3.78,0,0,1,1.31.77.65.65,0,0,1,.13.91.38.38,0,0,1-.31.16.46.46,0,0,1-.21,0,1.14,1.14,0,0,1-.23-.13,4.75,4.75,0,0,0-1.15-.65,3.59,3.59,0,0,0-1.19-.18,2.77,2.77,0,0,0-2.24.91,3.91,3.91,0,0,0-.77,2.63,4,4,0,0,0,.79,2.68,2.91,2.91,0,0,0,2.33.91,6.32,6.32,0,0,0,2-.31V50.91h-1.7a.57.57,0,0,1-.4-.14.46.46,0,0,1-.15-.36.47.47,0,0,1,.15-.37.57.57,0,0,1,.4-.14H141A.53.53,0,0,1,141.39,50.05Z"/><path class="cls-1" d="M145.28,54.61a.66.66,0,0,1-.18-.49V46.24a.69.69,0,0,1,.18-.49.65.65,0,0,1,.48-.18.67.67,0,0,1,.49.18.66.66,0,0,1,.18.49v7.88a.66.66,0,0,1-.18.49.64.64,0,0,1-.49.18A.65.65,0,0,1,145.28,54.61Z"/><path class="cls-1" d="M151.24,54.56a3.75,3.75,0,0,1-1.42-.75.65.65,0,0,1-.24-.53.59.59,0,0,1,.13-.39.37.37,0,0,1,.31-.16.85.85,0,0,1,.43.17,4.34,4.34,0,0,0,2.62.85,2.75,2.75,0,0,0,1.59-.39,1.28,1.28,0,0,0,.56-1.11.92.92,0,0,0-.52-.85,6.55,6.55,0,0,0-1.65-.54,10.14,10.14,0,0,1-1.78-.53,2.63,2.63,0,0,1-1.09-.81,2.07,2.07,0,0,1-.4-1.29,2.33,2.33,0,0,1,.44-1.4,2.82,2.82,0,0,1,1.2-1,4.33,4.33,0,0,1,1.77-.34,5.08,5.08,0,0,1,1.69.26,3.44,3.44,0,0,1,1.32.76.67.67,0,0,1,.26.53.59.59,0,0,1-.14.38.39.39,0,0,1-.32.17.77.77,0,0,1-.42-.17,4.93,4.93,0,0,0-1.12-.65,3.62,3.62,0,0,0-1.26-.2,2.56,2.56,0,0,0-1.54.41,1.33,1.33,0,0,0-.56,1.13,1,1,0,0,0,.49.93,5.31,5.31,0,0,0,1.57.58,13,13,0,0,1,1.84.53,2.92,2.92,0,0,1,1.13.76,1.85,1.85,0,0,1,.42,1.25,2.26,2.26,0,0,1-.44,1.37,2.74,2.74,0,0,1-1.21.93,4.59,4.59,0,0,1-1.8.33A6.34,6.34,0,0,1,151.24,54.56Z"/><path class="cls-1" d="M161.9,54.61a.66.66,0,0,1-.19-.49V46.74h-2.58c-.42,0-.62-.18-.62-.55a.54.54,0,0,1,.16-.42.7.7,0,0,1,.46-.14h6.5a.7.7,0,0,1,.46.14.54.54,0,0,1,.16.42c0,.37-.21.55-.62.55h-2.58v7.38a.69.69,0,0,1-.18.49.66.66,0,0,1-.49.18A.65.65,0,0,1,161.9,54.61Z"/><path class="cls-1" d="M169.08,54.61a.66.66,0,0,1-.18-.49V46.24a.69.69,0,0,1,.18-.49.64.64,0,0,1,.47-.18.66.66,0,0,1,.49.18.63.63,0,0,1,.19.49v7.88a.62.62,0,0,1-.68.67A.64.64,0,0,1,169.08,54.61Z"/><path class="cls-1" d="M175.58,54.27a3.67,3.67,0,0,1-1.48-1.61,6.17,6.17,0,0,1,0-5,3.67,3.67,0,0,1,1.48-1.61,4.49,4.49,0,0,1,2.27-.56,5.09,5.09,0,0,1,1.62.26,4,4,0,0,1,1.32.77.61.61,0,0,1,.25.52.59.59,0,0,1-.13.39.38.38,0,0,1-.31.16.64.64,0,0,1-.43-.17,4.62,4.62,0,0,0-1.12-.65,3.49,3.49,0,0,0-1.16-.18,2.67,2.67,0,0,0-2.18.91,4,4,0,0,0-.76,2.63,4,4,0,0,0,.76,2.65,2.68,2.68,0,0,0,2.18.92,3.15,3.15,0,0,0,1.13-.2,5.48,5.48,0,0,0,1.15-.64.92.92,0,0,1,.43-.17.38.38,0,0,1,.31.16.59.59,0,0,1,.13.39.61.61,0,0,1-.25.52,3.86,3.86,0,0,1-1.32.77,5.09,5.09,0,0,1-1.62.26A4.39,4.39,0,0,1,175.58,54.27Z"/><path class="cls-1" d="M190.27,54.56a3.63,3.63,0,0,1-1.41-.75.66.66,0,0,1-.25-.53.65.65,0,0,1,.13-.39.38.38,0,0,1,.31-.16.88.88,0,0,1,.44.17,4.34,4.34,0,0,0,2.62.85,2.75,2.75,0,0,0,1.59-.39,1.27,1.27,0,0,0,.55-1.11.91.91,0,0,0-.51-.85,6.85,6.85,0,0,0-1.65-.54,10.28,10.28,0,0,1-1.79-.53,2.76,2.76,0,0,1-1.09-.81,2.06,2.06,0,0,1-.39-1.29,2.33,2.33,0,0,1,.43-1.4,2.85,2.85,0,0,1,1.21-1,4.3,4.3,0,0,1,1.77-.34,5.12,5.12,0,0,1,1.69.26,3.48,3.48,0,0,1,1.31.76.64.64,0,0,1,.26.53.58.58,0,0,1-.13.38.39.39,0,0,1-.32.17.82.82,0,0,1-.43-.17,4.68,4.68,0,0,0-1.11-.65,3.62,3.62,0,0,0-1.26-.2,2.6,2.6,0,0,0-1.55.41,1.32,1.32,0,0,0-.55,1.13,1,1,0,0,0,.49.93,5.2,5.2,0,0,0,1.57.58,13.46,13.46,0,0,1,1.84.53,2.88,2.88,0,0,1,1.12.76,1.85,1.85,0,0,1,.42,1.25,2.26,2.26,0,0,1-.43,1.37,2.79,2.79,0,0,1-1.21.93,4.59,4.59,0,0,1-1.8.33A6.36,6.36,0,0,1,190.27,54.56Z"/><path class="cls-1" d="M198.53,54.56a.78.78,0,0,1-.24-.59.82.82,0,0,1,.83-.84.78.78,0,0,1,.58.24.85.85,0,0,1,.23.6.81.81,0,0,1-.23.59.78.78,0,0,1-.58.23A.8.8,0,0,1,198.53,54.56Z"/><path class="cls-1" d="M211.61,54.21a.55.55,0,0,1-.2.42.67.67,0,0,1-.45.16.59.59,0,0,1-.31-.09.63.63,0,0,1-.23-.28l-.85-1.94h-4.72L204,54.42a.66.66,0,0,1-.24.28.62.62,0,0,1-.32.09.72.72,0,0,1-.46-.16.55.55,0,0,1-.2-.42.56.56,0,0,1,.07-.25l3.64-8a.69.69,0,0,1,.29-.32.79.79,0,0,1,.42-.12.84.84,0,0,1,.42.12.74.74,0,0,1,.29.32l3.64,8A.69.69,0,0,1,211.61,54.21Zm-6.28-2.78h3.78l-1.9-4.28Z"/><path class="cls-1" d="M214.69,54.56a.78.78,0,0,1-.24-.59.81.81,0,0,1,.24-.6.83.83,0,0,1,1.17,0,.85.85,0,0,1,.23.6.81.81,0,0,1-.23.59.86.86,0,0,1-1.17,0Z"/><path class="cls-1" d="M88.18,33.36H77.8c-.18.51-.37,1.07-.58,1.68s-.4,1.2-.6,1.78-.38,1.12-.56,1.63-.32.92-.42,1.26a3.36,3.36,0,0,1-1.28.23,1.93,1.93,0,0,1-1.11-.33,1.21,1.21,0,0,1-.48-1.07,2.25,2.25,0,0,1,.12-.71c.07-.25.16-.51.27-.8.39-1.08.88-2.47,1.49-4.18s1.26-3.51,2-5.44,1.44-3.85,2.17-5.8,1.41-3.7,2-5.25a5,5,0,0,1,.93-.31A5.47,5.47,0,0,1,83,15.9a4.64,4.64,0,0,1,1.49.23,1.29,1.29,0,0,1,.91.77q.93,2.25,2,5.13t2.15,5.91q1.09,3,2.07,5.94t1.77,5.28a2.57,2.57,0,0,1-.74.57,2.16,2.16,0,0,1-1,.21,1.68,1.68,0,0,1-1.12-.33,2.52,2.52,0,0,1-.66-1.1ZM83,18.53l-1,2.65c-.36,1-.73,2-1.12,3.12s-.77,2.18-1.16,3.29-.75,2.17-1.08,3.17h8.71c-.39-1.16-.79-2.33-1.2-3.5S85.36,25,85,23.87l-1-3c-.32-.92-.59-1.7-.79-2.34Z"/><path class="cls-1" d="M115.26,35.06a7.15,7.15,0,0,1-1.78,2.71,8.17,8.17,0,0,1-2.88,1.74,12.64,12.64,0,0,1-7.82,0,7.86,7.86,0,0,1-2.87-1.74,7.35,7.35,0,0,1-1.76-2.71,10,10,0,0,1-.6-3.56V16.17a4.16,4.16,0,0,1,.6-.18A4,4,0,0,1,99,15.9c1.11,0,1.66.47,1.66,1.43v13.9a7.29,7.29,0,0,0,.47,2.71,5.76,5.76,0,0,0,1.26,2,4.88,4.88,0,0,0,1.89,1.18,7.49,7.49,0,0,0,4.77,0A4.88,4.88,0,0,0,111,35.89a5.76,5.76,0,0,0,1.26-2,7.29,7.29,0,0,0,.47-2.71V16.17a4.16,4.16,0,0,1,.6-.18,4,4,0,0,1,.87-.09c1.13,0,1.7.47,1.7,1.43V31.5A10,10,0,0,1,115.26,35.06Z"/><path class="cls-1" d="M142.42,27.59a15.81,15.81,0,0,1-.87,5.51,10.32,10.32,0,0,1-2.48,3.9,10.06,10.06,0,0,1-3.89,2.3,16.33,16.33,0,0,1-5.11.75q-1.24,0-2.79-.09a12.74,12.74,0,0,1-2.94-.53c-1.08-.33-1.63-.92-1.63-1.78V17.75a1.33,1.33,0,0,1,.31-.94,2.16,2.16,0,0,1,1-.53,11.78,11.78,0,0,1,2.71-.5c1-.08,2-.12,3-.12a16.55,16.55,0,0,1,5.17.76,11,11,0,0,1,4,2.24,10.25,10.25,0,0,1,2.59,3.72A13.43,13.43,0,0,1,142.42,27.59Zm-3.21,0a10.61,10.61,0,0,0-.76-4.24,7.81,7.81,0,0,0-2-2.89,8.35,8.35,0,0,0-3-1.64,12.63,12.63,0,0,0-3.7-.52c-.82,0-1.54,0-2.15.07a15.78,15.78,0,0,0-1.68.24V37a11,11,0,0,0,2,.31c.71.06,1.44.08,2.19.08,3.05,0,5.34-.82,6.87-2.48S139.21,30.84,139.21,27.59Z"/><path class="cls-1" d="M160.81,33.36H150.43c-.18.51-.37,1.07-.58,1.68s-.4,1.2-.6,1.78-.38,1.12-.56,1.63-.32.92-.42,1.26a3.36,3.36,0,0,1-1.28.23,1.9,1.9,0,0,1-1.1-.33,1.19,1.19,0,0,1-.49-1.07,2.25,2.25,0,0,1,.12-.71c.07-.25.17-.51.27-.8.39-1.08.88-2.47,1.49-4.18s1.26-3.51,2-5.44,1.44-3.85,2.17-5.8,1.42-3.7,2-5.25a5,5,0,0,1,.93-.31,5.47,5.47,0,0,1,1.28-.15,4.64,4.64,0,0,1,1.49.23,1.29,1.29,0,0,1,.91.77q.93,2.25,2,5.13c.7,1.92,1.42,3.89,2.14,5.91s1.42,4,2.08,5.94,1.24,3.71,1.76,5.28a2.44,2.44,0,0,1-.74.57,2.16,2.16,0,0,1-1,.21,1.68,1.68,0,0,1-1.12-.33,2.52,2.52,0,0,1-.66-1.1Zm-5.19-14.83c-.28.77-.6,1.66-1,2.65s-.73,2-1.12,3.12-.77,2.18-1.16,3.29-.75,2.17-1.08,3.17H160c-.39-1.16-.79-2.33-1.2-3.5S158,25,157.62,23.87l-1.05-3c-.32-.92-.59-1.7-.79-2.34Z"/><path class="cls-1" d="M172.31,39.82c-1.14,0-1.7-.46-1.7-1.39V16.55a2.85,2.85,0,0,1,2.09-.69,3.24,3.24,0,0,1,1.58.36,3.4,3.4,0,0,1,1.2,1.34L182.88,30l1,1.72c.33.61.65,1.22,1,1.82s.6,1.18.88,1.71.49,1,.67,1.33l.16,0q-.32-3.14-.37-6.31c0-2.11-.06-4.18-.06-6.19V16.17c.16-.06.36-.11.62-.18a3.76,3.76,0,0,1,.85-.09c1.14,0,1.71.46,1.71,1.39V39.2a2.54,2.54,0,0,1-.89.49,4.19,4.19,0,0,1-1.2.17,3.17,3.17,0,0,1-1.59-.37,3.3,3.3,0,0,1-1.2-1.33L177,25.77c-.31-.52-.64-1.09-1-1.71s-.69-1.22-1-1.82-.62-1.16-.89-1.7l-.68-1.35-.15,0c.12,1.24.23,2.66.31,4.24s.11,3.1.11,4.51V39.55a6,6,0,0,1-.6.18A3.84,3.84,0,0,1,172.31,39.82Z"/><path class="cls-1" d="M209.28,33.36H198.91c-.18.51-.38,1.07-.58,1.68s-.41,1.2-.6,1.78l-.57,1.63q-.27.75-.42,1.26a3.33,3.33,0,0,1-1.28.23,1.9,1.9,0,0,1-1.1-.33,1.19,1.19,0,0,1-.49-1.07,2.25,2.25,0,0,1,.12-.71c.08-.25.17-.51.27-.8.39-1.08.88-2.47,1.49-4.18s1.27-3.51,2-5.44,1.43-3.85,2.16-5.8,1.42-3.7,2-5.25a4.5,4.5,0,0,1,.93-.31,5.32,5.32,0,0,1,1.27-.15,4.6,4.6,0,0,1,1.49.23,1.29,1.29,0,0,1,.91.77q.93,2.25,2,5.13c.71,1.92,1.42,3.89,2.15,5.91s1.41,4,2.07,5.94,1.24,3.71,1.76,5.28a2.44,2.44,0,0,1-.74.57,2.12,2.12,0,0,1-1,.21,1.69,1.69,0,0,1-1.13-.33,2.52,2.52,0,0,1-.66-1.1Zm-5.19-14.83-1,2.65c-.37,1-.74,2-1.13,3.12l-1.16,3.29c-.39,1.11-.75,2.17-1.08,3.17h8.71c-.39-1.16-.79-2.33-1.2-3.5s-.81-2.31-1.18-3.39-.72-2.08-1.05-3-.58-1.7-.79-2.34Z"/><path class="cls-1" d="M63.55,31.35c-.18,0-15.35-.77-23.27-2.84l8.18-11.83a.64.64,0,0,0-.89-.9L35.66,24c-2.15-7.88-3-23.2-3-23.38A.65.65,0,0,0,32,0a.65.65,0,0,0-.65.61C31.34.79,30.58,16,28.49,24L16.65,15.77a.65.65,0,0,0-.82.08.64.64,0,0,0-.07.82l8.18,11.85C16,30.66.79,31.51.61,31.52a.66.66,0,0,0-.61.66.65.65,0,0,0,.61.64c.18,0,15.46.77,23.36,2.86L15.76,47.57a.64.64,0,0,0,.07.82.65.65,0,0,0,.82.08l11.88-8.2c2.13,7.91,3,23.11,3,23.29a.66.66,0,0,0,.66.6.65.65,0,0,0,.64-.61c0-.18.76-15.38,2.84-23.29l11.89,8.22a.66.66,0,0,0,.36.11.6.6,0,0,0,.45-.19.65.65,0,0,0,.08-.82L40.21,35.64c7.9-2.13,23.17-3,23.35-3a.64.64,0,0,0,.6-.64h0A.63.63,0,0,0,63.55,31.35ZM45.41,18.83l-6.57,9.51a4.16,4.16,0,0,0-.09-.63,3.4,3.4,0,0,0-.82-1.6l6.39-6.53ZM32.2,36.36C27.79,33.05,26.64,30,27,28.13a2.12,2.12,0,0,1,1.7-1.71,2.56,2.56,0,0,1,.39,0c1.74,0,2.42,2.35,2.45,2.46a.65.65,0,0,0,.6.47.63.63,0,0,0,.63-.43s1-2.91,3.09-2.52A2,2,0,0,1,37.5,28C37.89,29.74,36.72,33,32.2,36.36ZM32,9.1a99.35,99.35,0,0,0,2.53,15.66l-2.44,1.68L29.6,24.71A99.47,99.47,0,0,0,32,9.1ZM19,19l9.14,6.31a3.26,3.26,0,0,0-1.6,1.06ZM9.1,32.14a99,99,0,0,0,15.6-2.51l1.72,2.49-1.69,2.45A99.33,99.33,0,0,0,9.1,32.14ZM19.58,44.3l7.66-11.11A15.24,15.24,0,0,0,28.7,35ZM32.14,55.07a98.84,98.84,0,0,0-2.5-15.57l2.47-1.7,2.44,1.69A100.48,100.48,0,0,0,32.14,55.07Zm13.07-9.91.18.27-12-8.33a23.51,23.51,0,0,0,1.91-1.67ZM39.45,34.54l-1.63-2.37.2-.4,1.49-2.15A100.43,100.43,0,0,0,55.07,32,98.86,98.86,0,0,0,39.45,34.54Z"/></g></g></svg>